<svg width="90" height="90" viewBox="0 0 90 90" fill="none" xmlns="http://www.w3.org/2000/svg">
<path d="M44.9928 89.9896C69.8381 89.9896 89.9793 69.8448 89.9793 44.9948C89.9793 20.1449 69.8381 0 44.9928 0C20.1475 0 0.00634766 20.1449 0.00634766 44.9948C0.00634766 69.8448 20.1475 89.9896 44.9928 89.9896Z" fill="#FFC800"/>
<path d="M64.3529 78.5183C49.0753 87.3357 32.5064 88.9159 21.9229 83.6342C35.4729 91.7095 52.8707 92.4079 67.4939 83.9659C82.1171 75.5152 90.214 60.0979 89.9959 44.3226C89.2804 56.1344 79.6305 69.701 64.3529 78.5183Z" fill="black"/>
<path d="M50.6982 3.29996C53.7956 8.66023 46.3095 18.7871 33.9722 25.9021C21.635 33.0171 9.13195 34.4489 6.03455 29.0799C5.90368 28.8267 5.78153 28.5473 5.69428 28.2593C4.89157 25.7625 5.85133 22.5323 8.16347 19.1276C8.53865 18.5951 8.92255 18.0713 9.31518 17.5562C12.8052 13.0078 17.2288 9.06181 22.4988 6.02375C27.7687 2.97695 33.3964 1.12617 39.0764 0.375387C39.7395 0.279356 40.3852 0.209517 41.0134 0.165867C45.1141 -0.139686 48.386 0.646022 50.1485 2.5841C50.3579 2.81981 50.5411 3.05552 50.6982 3.29996Z" fill="black"/>
<path d="M69.8233 9.10545C75.2329 18.4728 64.3178 34.8941 45.4542 45.7892C26.5906 56.6844 6.90686 57.924 1.50604 48.5567C0.607359 46.994 0.127481 45.2567 0.0315055 43.3885C-0.204071 49.6828 0.877838 56.082 3.39938 62.1581C3.77456 63.0661 4.18464 63.9653 4.62089 64.8557C4.63834 64.8906 4.66452 64.9343 4.68197 64.9692C6.31356 67.789 8.72167 70.0065 11.7231 71.6128C22.3066 77.2786 40.2017 75.3318 56.9364 65.6676C73.6624 56.0034 84.2982 41.4853 84.6909 29.4902C84.8043 26.1029 84.0976 22.9164 82.4834 20.0966C81.8727 19.18 81.2357 18.2808 80.5639 17.4252C76.594 12.2919 71.6556 8.20625 66.1675 5.29041C67.6944 6.29436 68.9334 7.56022 69.8233 9.10545C69.8233 9.10545 69.8321 9.11418 69.8321 9.12291L69.8233 9.10545Z" fill="black"/>
<path d="M45.0016 89.9896C69.8469 89.9896 89.9881 69.8448 89.9881 44.9948C89.9881 20.1449 69.8469 0 45.0016 0C20.1563 0 0.0151367 20.1449 0.0151367 44.9948C0.0151367 69.8448 20.1563 89.9896 45.0016 89.9896Z" fill="url(#paint0_radial_6295_1361)"/>
<defs>
<radialGradient id="paint0_radial_6295_1361" cx="0" cy="0" r="1" gradientUnits="userSpaceOnUse" gradientTransform="translate(44.9974 44.9986) scale(44.9854 45.0112)">
<stop offset="0.5" stop-color="white" stop-opacity="0"/>
<stop offset="1" stop-color="white" stop-opacity="0.35"/>
</radialGradient>
</defs>
</svg>
